<svg width="25" height="12" xmlns="http://www.w3.org/2000/svg">
<path d="M19.3749 3.33671L16.7133 6.00042L19.3744 8.66367L18.6351 9.33631L16.0076 6.70668L13.3796 9.33672L12.6394 8.66328L15.301 5.99958L12.6398 3.33631L13.3791 2.66367L16.0067 5.29331L18.6347 2.66327L19.3749 3.33671Z" />
<path fill-rule="evenodd" clip-rule="evenodd" d="M6.90516 0C6.52837 0 6.1654 0.142025 5.88854 0.397794L0.482202 5.39217C-0.164065 5.98919 -0.160176 7.0122 0.490607 7.60428L4.89335 11.6099C5.16924 11.8609 5.52871 12 5.90157 12H23.5012C24.329 12 25 11.3284 25 10.5V1.5C25 0.671573 24.329 0 23.5012 0H6.90516ZM6.56628 1.1326C6.65857 1.04734 6.77956 1 6.90516 1H23.5012C23.7771 1 24.0008 1.22386 24.0008 1.5V10.5C24.0008 10.7761 23.7771 11 23.5012 11H5.90157C5.77728 11 5.65746 10.9536 5.5655 10.87L1.16275 6.86434C0.945825 6.66698 0.94453 6.32598 1.15995 6.12697L6.56628 1.1326Z" />
</svg>
